<svg width="20" height="20" viewBox="0 0 20 20" fill="none" xmlns="http://www.w3.org/2000/svg">
<path d="M2.70898 18.3333V17.2917C2.70898 16.3341 2.89759 15.3859 3.26403 14.5013C3.63047 13.6166 4.16757 12.8128 4.84466 12.1357C5.52176 11.4586 6.32558 10.9215 7.21025 10.555C8.09492 10.1886 9.0431 10 10.0007 10C10.9582 10 11.9064 10.1886 12.7911 10.555C13.6757 10.9215 14.4795 11.4586 15.1566 12.1357C15.8337 12.8128 16.3708 13.6166 16.7373 14.5013C17.1037 15.3859 17.2923 16.3341 17.2923 17.2917V18.3333" stroke="#0B0B0B" stroke-width="2" stroke-linecap="round" stroke-linejoin="round"/>
<path d="M10.0007 9.99996C11.1057 9.99996 12.1655 9.56097 12.9469 8.77957C13.7283 7.99817 14.1673 6.93836 14.1673 5.83329C14.1673 4.72822 13.7283 3.66842 12.9469 2.88701C12.1655 2.10561 11.1057 1.66663 10.0007 1.66663C8.89558 1.66663 7.83577 2.10561 7.05437 2.88701C6.27297 3.66842 5.83398 4.72822 5.83398 5.83329C5.83398 6.93836 6.27297 7.99817 7.05437 8.77957C7.83577 9.56097 8.89558 9.99996 10.0007 9.99996V9.99996Z" stroke="#0B0B0B" stroke-width="2" stroke-linecap="round" stroke-linejoin="round"/>
</svg>
