<?xml version="1.0" standalone="no"?>
<!DOCTYPE svg PUBLIC "-//W3C//DTD SVG 20010904//EN"
 "http://www.w3.org/TR/2001/REC-SVG-20010904/DTD/svg10.dtd">
<svg version="1.0" xmlns="http://www.w3.org/2000/svg"
 width="2560.000000pt" height="695.000000pt" viewBox="0 0 2560.000000 695.000000"
 preserveAspectRatio="xMidYMid meet">
<metadata>
Created by potrace 1.16, written by Peter Selinger 2001-2019
</metadata>
<g transform="translate(0.000000,695.000000) scale(0.100000,-0.100000)"
fill="#000000" stroke="none">
<path d="M19205 6788 c-133 -25 -276 -131 -335 -248 -65 -128 -60 113 -60
-3097 0 -2089 3 -2937 11 -2975 28 -134 130 -268 249 -328 127 -64 -98 -60
3080 -60 3185 0 2958 -4 3080 61 129 68 230 212 250 354 13 96 13 5795 0 5889
-13 90 -58 182 -124 253 -69 75 -142 118 -240 143 -79 20 -101 20 -2970 19
-1772 -1 -2910 -5 -2941 -11z m1273 -1134 c112 -23 195 -67 273 -144 103 -102
149 -216 149 -371 0 -149 -51 -270 -156 -369 -108 -101 -243 -149 -415 -150
-323 0 -556 216 -558 520 -2 145 47 268 145 366 135 136 348 192 562 148z
m3092 -1398 c525 -113 832 -505 889 -1136 7 -70 11 -468 11 -1027 l0 -913
-505 0 -505 0 0 833 c0 480 -5 872 -10 927 -26 244 -115 412 -259 484 -190 97
-428 66 -593 -74 -62 -54 -142 -174 -170 -258 l-23 -67 -3 -922 -3 -923 -504
0 -504 0 2 1515 2 1515 502 0 503 0 2 -211 3 -211 43 62 c163 231 386 370 666
416 104 17 354 11 456 -10z m-2730 -1561 l0 -1515 -505 0 -505 0 0 1515 0
1515 505 0 505 0 0 -1515z"/>
<path d="M3711 5655 c-201 -37 -367 -185 -416 -370 -19 -76 -19 -214 0 -290
44 -166 164 -290 342 -352 67 -23 94 -27 198 -27 169 0 282 34 390 116 208
160 254 481 101 707 -121 180 -356 263 -615 216z"/>
<path d="M150 3375 l0 -2205 1395 0 1395 0 0 460 0 460 -885 0 -885 0 0 1745
0 1745 -510 0 -510 0 0 -2205z"/>
<path d="M8300 3375 l0 -2205 505 0 505 0 0 489 0 489 124 157 125 157 24 -39
c13 -21 189 -311 392 -646 l368 -607 623 0 c343 0 624 2 624 5 0 3 -295 424
-655 935 -360 511 -656 934 -657 939 -2 5 245 283 547 617 303 333 563 622
578 640 l28 34 -613 0 -614 0 -341 -477 c-340 -478 -477 -673 -523 -748 l-25
-40 -3 1253 -2 1252 -505 0 -505 0 0 -2205z"/>
<path d="M16790 4822 l0 -759 -83 82 c-70 69 -99 89 -197 138 -189 94 -406
136 -645 124 -929 -47 -1513 -894 -1369 -1986 49 -375 202 -700 439 -936 189
-188 399 -303 658 -360 110 -24 351 -30 472 -11 192 29 370 95 506 186 87 59
210 180 266 262 26 37 48 66 50 64 3 -3 42 -409 43 -443 0 -10 97 -13 451 -13
l450 0 -5 108 c-4 59 -9 1051 -12 2205 l-5 2097 -510 0 -509 0 0 -758z m-446
-1198 c213 -55 381 -230 432 -451 23 -100 16 -750 -10 -838 -64 -222 -236
-385 -456 -431 -93 -20 -228 -13 -320 15 -128 40 -257 139 -336 258 -205 309
-198 878 15 1191 82 121 228 225 363 258 76 18 238 17 312 -2z"/>
<path d="M12715 4410 c-263 -19 -538 -106 -746 -235 -350 -219 -610 -614 -703
-1067 -53 -258 -48 -595 13 -849 133 -557 516 -938 1089 -1084 185 -46 275
-57 541 -62 444 -9 758 33 1109 149 112 37 123 43 118 62 -2 12 -33 163 -67
336 -34 173 -63 316 -64 318 -1 1 -42 -9 -91 -23 -218 -63 -401 -93 -639 -103
-287 -13 -463 7 -637 72 -244 92 -402 263 -433 470 l-8 49 1044 -4 1044 -4 7
45 c21 148 29 366 18 507 -60 785 -474 1295 -1139 1403 -141 23 -309 30 -456
20z m248 -675 c149 -39 258 -128 326 -267 48 -97 70 -175 78 -275 l6 -73 -592
0 -593 0 7 33 c63 316 225 518 465 581 73 19 231 20 303 1z"/>
<path d="M6555 4269 c-278 -37 -520 -183 -685 -413 l-35 -48 -3 201 -2 201
-509 0 -509 0 -1 -1520 -2 -1520 511 0 510 0 0 913 c0 1013 -3 967 67 1100 68
128 202 237 337 273 28 8 92 14 142 14 256 0 412 -139 477 -423 20 -89 21
-123 24 -984 l4 -893 505 0 504 0 0 945 c0 598 -4 981 -11 1043 -66 605 -370
985 -874 1093 -106 23 -345 33 -450 18z"/>
<path d="M3340 2690 l0 -1520 505 0 505 0 0 1520 0 1520 -505 0 -505 0 0
-1520z"/>
</g>
</svg>
