<svg width="190" height="190" viewBox="0 0 190 190" fill="none" xmlns="http://www.w3.org/2000/svg">
<circle cx="95" cy="95" r="95" fill="white"/>
<path d="M132.123 79.3625H57.5993C55.5413 79.3625 53.873 81.0308 53.873 83.0888V135.256C53.873 137.314 55.5413 138.982 57.5993 138.982H132.123C134.181 138.982 135.85 137.314 135.85 135.256V83.0888C135.85 81.0308 134.181 79.3625 132.123 79.3625Z" fill="#0B0B0B" stroke="#0B0B0B" stroke-width="2.54565" stroke-linecap="round" stroke-linejoin="round"/>
<path d="M128.496 78.46H55.851C53.845 78.46 52.2188 80.0862 52.2188 82.0922V132.943C52.2188 134.949 53.845 136.576 55.851 136.576H128.496C130.502 136.576 132.128 134.949 132.128 132.943V82.0922C132.128 80.0862 130.502 78.46 128.496 78.46Z" fill="#FFC431" stroke="#0B0B0B" stroke-width="3" stroke-linecap="round" stroke-linejoin="round"/>
<path d="M76.7051 76.7045V61.2371C76.7051 57.1349 78.3347 53.2008 81.2354 50.3001C84.1361 47.3994 88.0702 45.7698 92.1724 45.7698C96.2746 45.7698 100.209 47.3994 103.11 50.3001C106.01 53.2008 107.64 57.1349 107.64 61.2371V76.7045" stroke="#0B0B0B" stroke-width="3" stroke-linecap="round" stroke-linejoin="round"/>
<path d="M96.1213 107.518C96.1213 109.699 94.3536 111.466 92.173 111.466C89.9923 111.466 88.2246 109.699 88.2246 107.518C88.2246 105.337 89.9923 103.57 92.173 103.57C94.3536 103.57 96.1213 105.337 96.1213 107.518Z" fill="white" stroke="#0B0B0B" stroke-width="3"/>
</svg>
