<svg xmlns="http://www.w3.org/2000/svg" width="489" height="369" viewBox="0 0 489 369" version="1.1"><path d="M 86.741 310.429 C 72.383 315.553, 65.232 331.385, 71.353 344.500 C 82.685 368.784, 119 361.163, 119 334.500 C 119 318.090, 101.618 305.121, 86.741 310.429" stroke="none" fill="#ff4a60" fill-rule="evenodd"/><path d="M 29.560 104.137 C 28.920 106.021, 27.002 262.195, 27.608 263.174 C 28.162 264.071, 28.968 263.411, 72.577 226.422 C 90.134 211.528, 108.662 195.855, 113.750 191.592 C 125.023 182.145, 125.423 184.454, 110.265 171.437 C 103.261 165.422, 83.122 148.125, 65.511 133 C 26.687 99.655, 30.142 102.428, 29.560 104.137" stroke="none" fill="#1c94fc" fill-rule="evenodd"/><path d="M 281.854 4.479 C 281.591 4.743, 223.128 4.977, 151.938 5 C 80.747 5.022, 18.337 5.323, 13.250 5.668 L 4 6.295 4 22.760 L 4 39.224 224.250 38.601 C 345.387 38.258, 454.063 37.708, 465.750 37.378 L 487 36.779 487 20.389 L 487 4 384.667 4 C 328.383 4, 282.118 4.216, 281.854 4.479 M 305.667 61.667 C 305.300 62.033, 305 114.458, 305 178.167 L 305 294 328.893 294 C 349.758 294, 352.863 293.800, 353.393 292.418 C 353.727 291.548, 354 271.748, 354 248.418 L 354 206 360.898 206 C 374.843 206, 380.028 211.563, 398.183 246 C 399.198 247.925, 400.451 250.175, 400.968 251 C 401.861 252.426, 405.326 258.853, 418.164 282.894 L 423.828 293.500 450.914 293.766 L 478 294.032 478 291.647 C 478 290.335, 475.863 285.593, 473.250 281.110 C 468.150 272.358, 465.176 267.098, 460.617 258.768 C 459.031 255.871, 456.894 252.427, 455.867 251.115 C 454.840 249.803, 454 248.253, 454 247.669 C 454 247.085, 452.942 245.008, 451.648 243.054 C 450.354 241.099, 445.791 233.425, 441.506 226 C 432.970 211.208, 422.551 197.956, 415.443 192.852 L 410.875 189.571 414.425 188.343 C 469.993 169.104, 467.308 72.643, 411 65.310 C 408.525 64.987, 405.965 64.303, 405.311 63.790 C 402.330 61.449, 307.896 59.437, 305.667 61.667 M 167.031 63.942 C 166.325 65.262, 166.073 102.535, 166.246 180.192 L 166.500 294.500 190.430 294.769 C 219.492 295.095, 215.966 301.373, 215.985 249.264 L 216 206.027 248.750 205.764 L 281.500 205.500 281.500 183.500 L 281.500 161.500 248.750 161.236 L 216 160.973 216 134.486 L 216 108 250.965 108 C 284.510 108, 285.972 107.921, 286.965 106.066 C 288.291 103.588, 288.342 68.030, 287.025 64.565 L 286.050 62 227.060 62 C 169.679 62, 168.042 62.053, 167.031 63.942 M 10.446 69.068 C 5.090 70.625, 3.574 75.320, 3.368 91 C 1.808 209.772, 1.929 290.661, 3.672 293.971 C 9.036 304.158, 22.075 300.456, 42.500 282.948 C 49.650 276.819, 63.150 265.386, 72.500 257.542 C 102.020 232.774, 104.409 230.756, 108.549 227.088 C 110.777 225.114, 116.361 220.350, 120.960 216.500 C 141.418 199.372, 146.642 194.528, 148.750 190.734 C 153.603 182.001, 150.863 174.750, 138.837 164.500 C 134.320 160.650, 120.246 148.577, 107.562 137.672 C 94.878 126.766, 79.143 113.266, 72.596 107.672 C 60.427 97.274, 48.117 86.692, 37.062 77.126 C 27.801 69.112, 19.226 66.516, 10.446 69.068 M 29.560 104.137 C 28.920 106.021, 27.002 262.195, 27.608 263.174 C 28.162 264.071, 28.968 263.411, 72.577 226.422 C 90.134 211.528, 108.662 195.855, 113.750 191.592 C 125.023 182.145, 125.423 184.454, 110.265 171.437 C 103.261 165.422, 83.122 148.125, 65.511 133 C 26.687 99.655, 30.142 102.428, 29.560 104.137 M 354 133.481 L 354 164.276 368.408 163.787 C 395.694 162.860, 406.717 149.270, 402.576 121.661 C 400.768 109.601, 391.026 104.144, 369.813 103.309 L 354 102.687 354 133.481 M 84.365 300.089 C 77.820 301.986, 66.690 311.580, 64.852 316.908 C 64.629 317.554, 57.145 317.953, 44.500 317.995 C 33.500 318.031, 19.212 318.335, 12.750 318.672 L 1 319.283 1 335.642 L 1 352 33.500 352 C 51.375 352, 66 352.387, 66 352.859 C 66 372.139, 112.017 372.662, 122.738 353.504 C 123.563 352.030, 137.696 351.847, 284.071 351.420 C 372.307 351.162, 454.063 350.687, 465.750 350.365 L 487 349.779 487 333.889 L 487 318 306.094 318 L 125.188 318 121.678 313.115 C 113.274 301.417, 98.082 296.113, 84.365 300.089 M 86.741 310.429 C 72.383 315.553, 65.232 331.385, 71.353 344.500 C 82.685 368.784, 119 361.163, 119 334.500 C 119 318.090, 101.618 305.121, 86.741 310.429" stroke="none" fill="#040404" fill-rule="evenodd"/></svg>